<svg xmlns="http://www.w3.org/2000/svg" xmlns:xlink="http://www.w3.org/1999/xlink" width="500" zoomAndPan="magnify" viewBox="0 0 375 374.999991" height="500" preserveAspectRatio="xMidYMid meet" version="1.0"><defs><g/><clipPath id="e8855c3aa0"><path d="M 62.082031 0.480469 L 292.824219 0.480469 L 292.824219 179 L 62.082031 179 Z M 62.082031 0.480469 " clip-rule="nonzero"/></clipPath><clipPath id="2f643b3f63"><path d="M 0.078125 205 L 356.71875 205 L 356.71875 251 L 0.078125 251 Z M 0.078125 205 " clip-rule="nonzero"/></clipPath><clipPath id="48c9560215"><rect x="0" width="357" y="0" height="46"/></clipPath><clipPath id="02c4471d4f"><rect x="0" width="357" y="0" height="251"/></clipPath></defs><g transform="matrix(1, 0, 0, 1, 10, 55)"><g clip-path="url(#02c4471d4f)"><g clip-path="url(#e8855c3aa0)"><path fill="#11aaa2" d="M 177.496094 39.105469 L 254.320312 157.824219 L 100.671875 157.824219 L 177.496094 39.105469 M 177.496094 0.480469 L 62.113281 178.800781 L 292.878906 178.800781 Z M 177.496094 0.480469 " fill-opacity="1" fill-rule="nonzero"/></g><g clip-path="url(#2f643b3f63)"><g transform="matrix(1, 0, 0, 1, 0, 205)"><g clip-path="url(#48c9560215)"><g fill="#1f2937" fill-opacity="1"><g transform="translate(0.774499, 36.185823)"><g><path d="M 26.859375 0 L 26.828125 -15.671875 L 19.140625 -2.765625 L 16.421875 -2.765625 L 8.765625 -15.328125 L 8.765625 0 L 3.09375 0 L 3.09375 -26.125 L 8.09375 -26.125 L 17.875 -9.890625 L 27.5 -26.125 L 32.46875 -26.125 L 32.53125 0 Z M 26.859375 0 "/></g></g></g><g fill="#1f2937" fill-opacity="1"><g transform="translate(38.460637, 36.185823)"><g><path d="M 23.328125 -4.84375 L 23.328125 0 L 3.09375 0 L 3.09375 -26.125 L 22.828125 -26.125 L 22.828125 -21.265625 L 9.109375 -21.265625 L 9.109375 -15.59375 L 21.234375 -15.59375 L 21.234375 -10.890625 L 9.109375 -10.890625 L 9.109375 -4.84375 Z M 23.328125 -4.84375 "/></g></g></g><g fill="#1f2937" fill-opacity="1"><g transform="translate(65.550004, 36.185823)"><g><path d="M 8.5 -21.1875 L 0.15625 -21.1875 L 0.15625 -26.125 L 22.90625 -26.125 L 22.90625 -21.1875 L 14.546875 -21.1875 L 14.546875 0 L 8.5 0 Z M 8.5 -21.1875 "/></g></g></g><g fill="#1f2937" fill-opacity="1"><g transform="translate(90.66181, 36.185823)"><g><path d="M 20.296875 -5.59375 L 8.171875 -5.59375 L 5.859375 0 L -0.328125 0 L 11.3125 -26.125 L 17.28125 -26.125 L 28.953125 0 L 22.609375 0 Z M 18.390625 -10.1875 L 14.25 -20.1875 L 10.109375 -10.1875 Z M 18.390625 -10.1875 "/></g></g></g><g fill="#1f2937" fill-opacity="1"><g transform="translate(121.295869, 36.185823)"><g><path d="M 3.09375 -26.125 L 9.140625 -26.125 L 9.140625 -4.921875 L 22.234375 -4.921875 L 22.234375 0 L 3.09375 0 Z M 3.09375 -26.125 "/></g></g></g><g fill="#1f2937" fill-opacity="1"><g transform="translate(145.885297, 36.185823)"><g/></g></g><g fill="#1f2937" fill-opacity="1"><g transform="translate(158.497384, 36.185823)"><g><path d="M 20.296875 -5.59375 L 8.171875 -5.59375 L 5.859375 0 L -0.328125 0 L 11.3125 -26.125 L 17.28125 -26.125 L 28.953125 0 L 22.609375 0 Z M 18.390625 -10.1875 L 14.25 -20.1875 L 10.109375 -10.1875 Z M 18.390625 -10.1875 "/></g></g></g><g fill="#1f2937" fill-opacity="1"><g transform="translate(189.131444, 36.185823)"><g><path d="M 14.703125 0.453125 C 10.972656 0.453125 8.066406 -0.578125 5.984375 -2.640625 C 3.910156 -4.710938 2.875 -7.664062 2.875 -11.5 L 2.875 -26.125 L 8.921875 -26.125 L 8.921875 -11.71875 C 8.921875 -7.039062 10.859375 -4.703125 14.734375 -4.703125 C 16.628906 -4.703125 18.070312 -5.265625 19.0625 -6.390625 C 20.0625 -7.523438 20.5625 -9.300781 20.5625 -11.71875 L 20.5625 -26.125 L 26.53125 -26.125 L 26.53125 -11.5 C 26.53125 -7.664062 25.488281 -4.710938 23.40625 -2.640625 C 21.332031 -0.578125 18.429688 0.453125 14.703125 0.453125 Z M 14.703125 0.453125 "/></g></g></g><g fill="#1f2937" fill-opacity="1"><g transform="translate(220.586388, 36.185823)"><g><path d="M 11.671875 0.453125 C 9.609375 0.453125 7.613281 0.171875 5.6875 -0.390625 C 3.757812 -0.953125 2.210938 -1.679688 1.046875 -2.578125 L 3.09375 -7.125 C 4.21875 -6.300781 5.550781 -5.640625 7.09375 -5.140625 C 8.632812 -4.648438 10.175781 -4.40625 11.71875 -4.40625 C 13.4375 -4.40625 14.703125 -4.660156 15.515625 -5.171875 C 16.335938 -5.679688 16.75 -6.359375 16.75 -7.203125 C 16.75 -7.828125 16.503906 -8.34375 16.015625 -8.75 C 15.535156 -9.15625 14.914062 -9.484375 14.15625 -9.734375 C 13.394531 -9.984375 12.367188 -10.257812 11.078125 -10.5625 C 9.085938 -11.03125 7.457031 -11.5 6.1875 -11.96875 C 4.925781 -12.445312 3.835938 -13.207031 2.921875 -14.25 C 2.015625 -15.300781 1.5625 -16.695312 1.5625 -18.4375 C 1.5625 -19.945312 1.972656 -21.316406 2.796875 -22.546875 C 3.617188 -23.785156 4.859375 -24.765625 6.515625 -25.484375 C 8.171875 -26.203125 10.191406 -26.5625 12.578125 -26.5625 C 14.242188 -26.5625 15.867188 -26.363281 17.453125 -25.96875 C 19.046875 -25.570312 20.441406 -25 21.640625 -24.25 L 19.78125 -19.65625 C 17.363281 -21.03125 14.945312 -21.71875 12.53125 -21.71875 C 10.84375 -21.71875 9.59375 -21.441406 8.78125 -20.890625 C 7.976562 -20.347656 7.578125 -19.628906 7.578125 -18.734375 C 7.578125 -17.835938 8.039062 -17.171875 8.96875 -16.734375 C 9.90625 -16.296875 11.332031 -15.867188 13.25 -15.453125 C 15.238281 -14.972656 16.863281 -14.5 18.125 -14.03125 C 19.394531 -13.5625 20.484375 -12.816406 21.390625 -11.796875 C 22.304688 -10.773438 22.765625 -9.394531 22.765625 -7.65625 C 22.765625 -6.15625 22.347656 -4.789062 21.515625 -3.5625 C 20.679688 -2.332031 19.429688 -1.351562 17.765625 -0.625 C 16.097656 0.09375 14.066406 0.453125 11.671875 0.453125 Z M 11.671875 0.453125 "/></g></g></g><g fill="#1f2937" fill-opacity="1"><g transform="translate(246.444428, 36.185823)"><g><path d="M 8.5 -21.1875 L 0.15625 -21.1875 L 0.15625 -26.125 L 22.90625 -26.125 L 22.90625 -21.1875 L 14.546875 -21.1875 L 14.546875 0 L 8.5 0 Z M 8.5 -21.1875 "/></g></g></g><g fill="#1f2937" fill-opacity="1"><g transform="translate(271.556221, 36.185823)"><g><path d="M 19.734375 0 L 14.703125 -7.28125 L 9.140625 -7.28125 L 9.140625 0 L 3.09375 0 L 3.09375 -26.125 L 14.40625 -26.125 C 16.71875 -26.125 18.722656 -25.738281 20.421875 -24.96875 C 22.128906 -24.195312 23.441406 -23.097656 24.359375 -21.671875 C 25.285156 -20.253906 25.75 -18.578125 25.75 -16.640625 C 25.75 -14.703125 25.28125 -13.03125 24.34375 -11.625 C 23.414062 -10.21875 22.09375 -9.140625 20.375 -8.390625 L 26.234375 0 Z M 19.625 -16.640625 C 19.625 -18.109375 19.148438 -19.234375 18.203125 -20.015625 C 17.265625 -20.796875 15.882812 -21.1875 14.0625 -21.1875 L 9.140625 -21.1875 L 9.140625 -12.09375 L 14.0625 -12.09375 C 15.882812 -12.09375 17.265625 -12.488281 18.203125 -13.28125 C 19.148438 -14.082031 19.625 -15.203125 19.625 -16.640625 Z M 19.625 -16.640625 "/></g></g></g><g fill="#1f2937" fill-opacity="1"><g transform="translate(301.033592, 36.185823)"><g><path d="M 20.296875 -5.59375 L 8.171875 -5.59375 L 5.859375 0 L -0.328125 0 L 11.3125 -26.125 L 17.28125 -26.125 L 28.953125 0 L 22.609375 0 Z M 18.390625 -10.1875 L 14.25 -20.1875 L 10.109375 -10.1875 Z M 18.390625 -10.1875 "/></g></g></g><g fill="#1f2937" fill-opacity="1"><g transform="translate(331.667663, 36.185823)"><g><path d="M 3.09375 -26.125 L 9.140625 -26.125 L 9.140625 -4.921875 L 22.234375 -4.921875 L 22.234375 0 L 3.09375 0 Z M 3.09375 -26.125 "/></g></g></g></g></g></g></g></g></svg>